<svg width="270" height="256" viewBox="0 0 270 256" fill="none" xmlns="http://www.w3.org/2000/svg">
<path d="M35.64 154.16L9.48 127.28L35.64 100.4H56.76L30.6 127.28L56.76 154.16H35.64ZM139.438 112.16C139.438 116.64 138.358 120.84 136.198 124.76C134.118 128.68 130.798 131.84 126.238 134.24C121.758 136.64 116.078 137.84 109.198 137.84H95.1581V170H78.3581V86.24H109.198C115.678 86.24 121.198 87.36 125.758 89.6C130.318 91.84 133.718 94.92 135.958 98.84C138.278 102.76 139.438 107.2 139.438 112.16ZM108.478 124.28C113.118 124.28 116.558 123.24 118.798 121.16C121.038 119 122.158 116 122.158 112.16C122.158 104 117.598 99.92 108.478 99.92H95.1581V124.28H108.478ZM196.366 56.36L163.966 191.72H147.526L179.926 56.36H196.366ZM212.125 100.4H233.365L259.525 127.28L233.365 154.16H212.125L238.405 127.28L212.125 100.4Z" fill="#E5C6F7"/>
</svg>
